<?xml version="1.0" encoding="utf-8"?>
<!-- Generator: Adobe Illustrator 24.0.0, SVG Export Plug-In . SVG Version: 6.00 Build 0)  -->
<svg version="1.1" id="Capa_1" xmlns="http://www.w3.org/2000/svg" xmlns:xlink="http://www.w3.org/1999/xlink" x="0px" y="0px"
	 viewBox="0 0 75 25" style="enable-background:new 0 0 75 25;" xml:space="preserve">
<style type="text/css">
	.st0{fill-rule:evenodd;clip-rule:evenodd;fill:url(#SVGID_1_);}
	.st1{fill:#969696;}
	.st2{fill:#B853FA;}
</style>
<g id="logo_2_">
	<g id="logo_4_">
		<linearGradient id="SVGID_1_" gradientUnits="userSpaceOnUse" x1="6.2806" y1="9.1727" x2="14.0353" y2="13.6498">
			<stop  offset="0" style="stop-color:#FF01FF"/>
			<stop  offset="0.1991" style="stop-color:#FA06FE"/>
			<stop  offset="0.437" style="stop-color:#EB14FA"/>
			<stop  offset="0.6945" style="stop-color:#D32CF4"/>
			<stop  offset="0.9644" style="stop-color:#B24CEC"/>
			<stop  offset="1" style="stop-color:#AD51EB"/>
		</linearGradient>
		<path class="st0" d="M4.1,18.1c0.1-0.3-0.3-1.3,0.6-2.7l0.7-1C5.8,14,6.6,13.1,7,12.8l0.7-0.6c0.1-0.1,0.3-0.3,0.5-0.4
			C9,11.4,11,11.6,11,11.2c-0.2-0.5-1.8,0.1-2.2,0.1c0.1-0.2,1.1-1.1,1.4-1.4c0.6-0.6,1.6-1.7,2-2.6c0.4-0.8,0.7-1.9,0.5-3
			c-0.1-0.7-0.8-2.2-1.3-2.4c0.2,1.3,0.2,1.5-0.4,2.7C10.6,5.3,10,6,9.6,6.5C9.4,6.6,9.3,6.8,9.2,6.9l-3.8,3.5
			c-0.9,1-1.4,1.5-2.1,2.8c-0.6,1.2-0.5,2.7,0.2,3.9C3.5,17.3,3.9,17.9,4.1,18.1C4.1,18.1,4.1,18,4.1,18.1L4.1,18.1z M7.4,19.8
			c0.3,0.1,0.5,0.4,1.7,0.6c1.3,0.2,2.6-0.1,3.6-0.7c1.7-1,1-1.2,1.3-2.1c0.5-1.6,1.8-2.1,2.3-3.3c0.4-0.9,0.2-1.3,0.2-2
			c0.1,0,0.2,0.1,0.2,0.2c0.1,0.1,0.1,0.1,0.2,0.2c0.1,0.1,0.1,0.1,0.2,0.2c0.1,0.1,0.1,0.1,0.2,0.2c0.7,1,1.1,2.3,0.9,3.5
			c-0.2,1.3-1.2,2.4-2.3,3c-0.2,0.1-0.4,0.1-0.5,0.3c0.1,0.1,0.2,0.1,0.4,0.2c1,0.3,1.7,1.4,1.7,2.5c-0.2,0-0.4-0.2-0.5-0.2
			c-0.4-0.1-1.3,0-1.9-0.2c-1.2-0.2-1.5-1.2-1.4-1.3c0.3-0.2,1,0,1.3,0c0.2,0,0.4,0.1,0.6,0.2c0.2,0.1,0.4,0.2,0.6,0.2
			c-0.2-0.4-1.2-0.7-1.6-0.8c-0.1,0-0.2,0-0.4,0c-0.1,0-0.2,0-0.3-0.1c0.4-0.5,1.6-0.7,2.7-2.9c0.2-0.4,0.4-1,0.4-1.5
			c-0.1,0,0,0-0.1,0.1l-0.1,0.3c-0.2,0.4-0.3,0.6-0.5,0.9c-0.6,0.9-1.5,1.8-2.5,2.4c-1,0.6-2.3,1.2-3.6,1.3c-0.5,0-1.3-0.1-1.7-0.3
			c-0.3-0.2-0.8-0.4-1-0.7C7.4,19.8,7.4,19.9,7.4,19.8L7.4,19.8z M2.2,16.3c-0.4-0.2-0.9-1.6-1-2.1c-0.2-1.3,0.2-2.7,0.9-3.7
			l1.1-1.3C3.2,9.1,3.2,9,3.3,8.9l1-0.9c0.5-0.4,2.8-2.3,3.5-2.8l0.9-0.7C9,4.2,9.3,4,9.6,3.8c1.1-1.1,1.1-1.6,1.3-1.8
			c0.4,0.5-0.6,1.8-0.8,2.1c-0.7,1-0.5,0.6-1.4,1.6C8.1,6.3,7.5,6.8,6.8,7.4L6.5,7.8C6.2,8.1,6.1,8.1,5.7,8.5
			C5.4,8.8,4.1,10,3.8,10.4l-1,1.3c-0.4,0.5-0.8,1.3-0.9,2C1.6,15.2,2,15.6,2.2,16.3L2.2,16.3z M6.9,13.4c0.6,0,1.4,0.2,2,0
			c1-0.3,0.6-1,1.1-1l-0.1,0.2c0.1,0,0.2,0,0.2,0.2c0.1,0.3,0.1,0.4,0,0.6c-0.1,0.1,0,0.1,0,0.3l-0.3,0c0,0.2,0.1,0.1,0.1,0.4
			l-0.3-0.1l0.1,0.3C9.5,14.1,9.5,14,9.3,14l0.1,0.3c-0.2-0.1-0.2-0.1-0.3-0.2l0.1,0.3c-0.1,0-0.2-0.1-0.3-0.2l0,0.1
			c0,0,0,0-0.1,0.1c-0.1-0.1-0.1-0.1-0.2-0.1c0,0.1,0.1,0.2,0.1,0.3c-0.2,0-0.1-0.2-0.4-0.2l-0.1,0.2C8,14.3,8,14.3,7.8,14.2
			c-0.7-0.3-0.3-0.2-0.6-0.5C7.1,13.5,7,13.5,6.9,13.4L6.9,13.4z M10.6,17.2c0.2-0.1,0.4-0.2,0.6-0.4c0.2-0.2,0.3-0.3,0.5-0.5
			c0.6-0.7,0.5-0.4,0.9-0.6c0.1-0.1,0.1-0.1,0.3-0.2c0,0.2-0.2,0.7-0.3,0.9C12.2,18,10.8,17.6,10.6,17.2L10.6,17.2z M12.5,10.7
			c0-0.3,0.1-0.3,0.2-0.5c0.2-0.6-0.1-0.9,0.4-0.7c0.2,0.1,0.3,0.1,0.5,0.1c-0.1,0.1-0.1,0.1-0.1,0.2c0.1,0.1,0.1,0,0.1,0.1
			c-0.2,0.1-0.1,0.1-0.2,0.3C13.3,10.7,13,10.7,12.5,10.7z"/>
	</g>
	<g>
		<g>
			<path class="st1" d="M23.3,19.2l-1-2.7h0c0,0.2,0,0.5,0,0.8v1.9H22v-3h0.5l1,2.5h0l1-2.5H25v3h-0.4v-2c0-0.2,0-0.5,0-0.7h0
				l-1,2.7H23.3z"/>
			<path class="st1" d="M26.7,19.2c-0.3,0-0.6-0.1-0.8-0.3c-0.2-0.2-0.3-0.5-0.3-0.9c0-0.4,0.1-0.7,0.3-0.9c0.2-0.2,0.4-0.3,0.7-0.3
				c0.3,0,0.5,0.1,0.7,0.3c0.2,0.2,0.2,0.4,0.2,0.7v0.2H26c0,0.3,0.1,0.5,0.2,0.6c0.1,0.1,0.3,0.2,0.5,0.2c0.2,0,0.5-0.1,0.7-0.2
				v0.3c-0.1,0.1-0.2,0.1-0.3,0.1C27,19.2,26.9,19.2,26.7,19.2z M26.7,17.2c-0.2,0-0.3,0.1-0.4,0.2S26,17.6,26,17.9h1.2
				c0-0.2,0-0.4-0.1-0.5C27,17.2,26.8,17.2,26.7,17.2z"/>
			<path class="st1" d="M29.7,18.9L29.7,18.9c-0.2,0.2-0.4,0.3-0.7,0.3c-0.3,0-0.5-0.1-0.7-0.3c-0.2-0.2-0.2-0.5-0.2-0.9
				s0.1-0.7,0.2-0.9s0.4-0.3,0.7-0.3c0.3,0,0.5,0.1,0.7,0.3h0l0-0.2l0-0.2V16H30v3.2h-0.3L29.7,18.9z M29,19c0.2,0,0.4-0.1,0.5-0.2
				c0.1-0.1,0.2-0.3,0.2-0.6v-0.1c0-0.3-0.1-0.6-0.2-0.7c-0.1-0.1-0.3-0.2-0.5-0.2c-0.2,0-0.4,0.1-0.5,0.2c-0.1,0.2-0.2,0.4-0.2,0.7
				c0,0.3,0.1,0.5,0.2,0.7C28.7,18.9,28.8,19,29,19z"/>
			<path class="st1" d="M30.7,16.3c0-0.1,0-0.1,0.1-0.2c0,0,0.1-0.1,0.1-0.1c0.1,0,0.1,0,0.1,0.1s0.1,0.1,0.1,0.2s0,0.1-0.1,0.2
				s-0.1,0.1-0.1,0.1c-0.1,0-0.1,0-0.1-0.1S30.7,16.4,30.7,16.3z M31.1,19.2h-0.3v-2.3h0.3V19.2z"/>
			<path class="st1" d="M32.7,19.2c-0.3,0-0.6-0.1-0.8-0.3c-0.2-0.2-0.3-0.5-0.3-0.9c0-0.4,0.1-0.7,0.3-0.9s0.4-0.3,0.8-0.3
				c0.1,0,0.2,0,0.3,0c0.1,0,0.2,0.1,0.3,0.1l-0.1,0.3c-0.1,0-0.2-0.1-0.2-0.1c-0.1,0-0.2,0-0.2,0c-0.5,0-0.7,0.3-0.7,0.9
				c0,0.3,0.1,0.5,0.2,0.6c0.1,0.1,0.3,0.2,0.5,0.2c0.2,0,0.4,0,0.6-0.1v0.3C33.2,19.2,33,19.2,32.7,19.2z"/>
			<path class="st1" d="M33.8,16.3c0-0.1,0-0.1,0.1-0.2c0,0,0.1-0.1,0.1-0.1c0.1,0,0.1,0,0.1,0.1s0.1,0.1,0.1,0.2s0,0.1-0.1,0.2
				s-0.1,0.1-0.1,0.1c-0.1,0-0.1,0-0.1-0.1S33.8,16.4,33.8,16.3z M34.2,19.2h-0.3v-2.3h0.3V19.2z"/>
			<path class="st1" d="M36.5,19.2v-1.5c0-0.2,0-0.3-0.1-0.4c-0.1-0.1-0.2-0.1-0.4-0.1c-0.2,0-0.4,0.1-0.5,0.2
				c-0.1,0.1-0.2,0.3-0.2,0.6v1.2h-0.3v-2.3h0.3l0.1,0.3h0c0.1-0.1,0.2-0.2,0.3-0.3c0.1-0.1,0.3-0.1,0.4-0.1c0.3,0,0.5,0.1,0.6,0.2
				c0.1,0.1,0.2,0.3,0.2,0.6v1.5H36.5z"/>
			<path class="st1" d="M38.9,19.2l-0.1-0.3h0c-0.1,0.1-0.2,0.2-0.3,0.3c-0.1,0.1-0.3,0.1-0.4,0.1c-0.2,0-0.4-0.1-0.5-0.2
				c-0.1-0.1-0.2-0.3-0.2-0.5c0-0.5,0.4-0.7,1.1-0.7l0.4,0v-0.1c0-0.2,0-0.3-0.1-0.4s-0.2-0.1-0.4-0.1c-0.2,0-0.4,0.1-0.6,0.2
				l-0.1-0.3C37.7,17,37.9,17,38,17s0.3-0.1,0.4-0.1c0.3,0,0.5,0.1,0.6,0.2c0.1,0.1,0.2,0.3,0.2,0.6v1.5H38.9z M38.2,19
				c0.2,0,0.4-0.1,0.5-0.2c0.1-0.1,0.2-0.3,0.2-0.5v-0.2l-0.3,0c-0.3,0-0.5,0.1-0.6,0.1c-0.1,0.1-0.2,0.2-0.2,0.4
				c0,0.1,0,0.2,0.1,0.3C37.9,18.9,38,19,38.2,19z"/>
			<path class="st1" d="M42.7,19.2h-1.7v-3h1.7v0.3h-1.3v1h1.3v0.3h-1.3v1.1h1.3V19.2z"/>
			<path class="st1" d="M44.8,18.6c0,0.2-0.1,0.4-0.2,0.5c-0.2,0.1-0.4,0.2-0.7,0.2c-0.3,0-0.5,0-0.7-0.1v-0.3
				c0.1,0.1,0.2,0.1,0.4,0.1c0.1,0,0.2,0,0.4,0c0.2,0,0.3,0,0.4-0.1c0.1-0.1,0.1-0.1,0.1-0.3c0-0.1,0-0.2-0.1-0.2
				c-0.1-0.1-0.2-0.1-0.4-0.2c-0.2-0.1-0.4-0.1-0.5-0.2c-0.1-0.1-0.2-0.1-0.2-0.2c0-0.1-0.1-0.2-0.1-0.3c0-0.2,0.1-0.3,0.2-0.4
				c0.2-0.1,0.4-0.2,0.6-0.2c0.2,0,0.5,0,0.7,0.1l-0.1,0.3c-0.2-0.1-0.4-0.1-0.6-0.1c-0.2,0-0.3,0-0.4,0.1c-0.1,0.1-0.1,0.1-0.1,0.2
				c0,0.1,0,0.1,0,0.2c0,0,0.1,0.1,0.2,0.1c0.1,0,0.2,0.1,0.4,0.2c0.3,0.1,0.5,0.2,0.5,0.3C44.8,18.3,44.8,18.4,44.8,18.6z"/>
			<path class="st1" d="M46.1,19c0.1,0,0.1,0,0.2,0s0.1,0,0.1,0v0.3c0,0-0.1,0-0.2,0c-0.1,0-0.1,0-0.2,0c-0.4,0-0.7-0.2-0.7-0.7
				v-1.4h-0.3V17l0.3-0.1l0.1-0.5h0.2v0.5h0.7v0.3h-0.7v1.3c0,0.1,0,0.2,0.1,0.3S46,19,46.1,19z"/>
			<path class="st1" d="M47.8,19.2c-0.3,0-0.6-0.1-0.8-0.3c-0.2-0.2-0.3-0.5-0.3-0.9c0-0.4,0.1-0.7,0.3-0.9c0.2-0.2,0.4-0.3,0.7-0.3
				c0.3,0,0.5,0.1,0.7,0.3c0.2,0.2,0.2,0.4,0.2,0.7v0.2h-1.6c0,0.3,0.1,0.5,0.2,0.6c0.1,0.1,0.3,0.2,0.5,0.2c0.2,0,0.5-0.1,0.7-0.2
				v0.3c-0.1,0.1-0.2,0.1-0.3,0.1C48.1,19.2,48,19.2,47.8,19.2z M47.7,17.2c-0.2,0-0.3,0.1-0.4,0.2s-0.2,0.3-0.2,0.5h1.2
				c0-0.2,0-0.4-0.1-0.5C48.1,17.2,47.9,17.2,47.7,17.2z M47.5,16.6c0.1-0.1,0.1-0.2,0.2-0.3c0.1-0.1,0.1-0.2,0.2-0.3h0.4v0
				c-0.1,0.1-0.2,0.2-0.3,0.3c-0.1,0.1-0.2,0.2-0.3,0.3L47.5,16.6L47.5,16.6z"/>
			<path class="st1" d="M50,19c0.1,0,0.1,0,0.2,0c0.1,0,0.1,0,0.1,0v0.3c0,0-0.1,0-0.2,0c-0.1,0-0.1,0-0.2,0c-0.4,0-0.7-0.2-0.7-0.7
				v-1.4H49V17l0.3-0.1l0.1-0.5h0.2v0.5h0.7v0.3h-0.7v1.3c0,0.1,0,0.2,0.1,0.3C49.8,18.9,49.9,19,50,19z"/>
			<path class="st1" d="M50.7,16.3c0-0.1,0-0.1,0.1-0.2c0,0,0.1-0.1,0.1-0.1c0.1,0,0.1,0,0.1,0.1s0.1,0.1,0.1,0.2s0,0.1-0.1,0.2
				s-0.1,0.1-0.1,0.1c-0.1,0-0.1,0-0.1-0.1S50.7,16.4,50.7,16.3z M51.1,19.2h-0.3v-2.3h0.3V19.2z"/>
			<path class="st1" d="M52.7,19.2c-0.3,0-0.6-0.1-0.8-0.3c-0.2-0.2-0.3-0.5-0.3-0.9c0-0.4,0.1-0.7,0.3-0.9s0.4-0.3,0.8-0.3
				c0.1,0,0.2,0,0.3,0s0.2,0.1,0.3,0.1l-0.1,0.3c-0.1,0-0.2-0.1-0.2-0.1c-0.1,0-0.2,0-0.2,0c-0.5,0-0.7,0.3-0.7,0.9
				c0,0.3,0.1,0.5,0.2,0.6c0.1,0.1,0.3,0.2,0.5,0.2c0.2,0,0.4,0,0.6-0.1v0.3C53.2,19.2,53,19.2,52.7,19.2z"/>
			<path class="st1" d="M55.2,19.2l-0.1-0.3h0c-0.1,0.1-0.2,0.2-0.3,0.3s-0.3,0.1-0.4,0.1c-0.2,0-0.4-0.1-0.5-0.2
				c-0.1-0.1-0.2-0.3-0.2-0.5c0-0.5,0.4-0.7,1.1-0.7l0.4,0v-0.1c0-0.2,0-0.3-0.1-0.4c-0.1-0.1-0.2-0.1-0.4-0.1
				c-0.2,0-0.4,0.1-0.6,0.2l-0.1-0.3C54,17,54.2,17,54.3,17c0.1,0,0.3-0.1,0.4-0.1c0.3,0,0.5,0.1,0.6,0.2c0.1,0.1,0.2,0.3,0.2,0.6
				v1.5H55.2z M54.5,19c0.2,0,0.4-0.1,0.5-0.2c0.1-0.1,0.2-0.3,0.2-0.5v-0.2l-0.3,0c-0.3,0-0.5,0.1-0.6,0.1S54,18.4,54,18.6
				c0,0.1,0,0.2,0.1,0.3C54.2,18.9,54.3,19,54.5,19z"/>
			<path class="st1" d="M57.2,18.4c0-0.2,0-0.3,0.1-0.5c0.1-0.1,0.3-0.3,0.5-0.4c-0.1-0.1-0.2-0.2-0.2-0.3c0-0.1-0.1-0.1-0.1-0.2
				c0-0.1,0-0.1,0-0.2c0-0.2,0.1-0.4,0.2-0.5c0.1-0.1,0.3-0.2,0.6-0.2c0.2,0,0.4,0.1,0.5,0.2c0.1,0.1,0.2,0.3,0.2,0.5
				c0,0.1,0,0.3-0.1,0.4s-0.2,0.3-0.5,0.4l0.8,0.8c0.1-0.1,0.1-0.2,0.2-0.3s0.1-0.2,0.1-0.4h0.3c-0.1,0.4-0.2,0.7-0.4,0.9l0.6,0.6
				h-0.5l-0.4-0.4c-0.2,0.1-0.3,0.3-0.5,0.3c-0.2,0.1-0.4,0.1-0.6,0.1c-0.3,0-0.5-0.1-0.7-0.2C57.3,18.9,57.2,18.7,57.2,18.4z
				 M58.1,18.9c0.3,0,0.6-0.1,0.8-0.3L58,17.7c-0.2,0.1-0.3,0.2-0.3,0.2s-0.1,0.1-0.1,0.2c0,0.1,0,0.2,0,0.2c0,0.2,0.1,0.3,0.2,0.4
				S57.9,18.9,58.1,18.9z M57.8,16.8c0,0.1,0,0.2,0.1,0.3c0,0.1,0.1,0.2,0.3,0.3c0.2-0.1,0.3-0.2,0.4-0.3c0.1-0.1,0.1-0.2,0.1-0.3
				c0-0.1,0-0.2-0.1-0.3c-0.1-0.1-0.2-0.1-0.3-0.1c-0.1,0-0.2,0-0.3,0.1C57.8,16.6,57.8,16.7,57.8,16.8z"/>
			<path class="st1" d="M63.3,18.4c0,0.3-0.1,0.5-0.3,0.6c-0.2,0.1-0.5,0.2-0.8,0.2c-0.4,0-0.6,0-0.8-0.1v-0.3
				c0.1,0.1,0.3,0.1,0.4,0.1c0.1,0,0.3,0,0.4,0c0.2,0,0.4,0,0.5-0.1c0.1-0.1,0.2-0.2,0.2-0.4c0-0.1,0-0.2-0.1-0.3
				c0-0.1-0.1-0.1-0.2-0.2c-0.1-0.1-0.2-0.1-0.5-0.2c-0.3-0.1-0.5-0.2-0.6-0.4c-0.1-0.1-0.2-0.3-0.2-0.5c0-0.2,0.1-0.4,0.3-0.6
				c0.2-0.1,0.4-0.2,0.7-0.2c0.3,0,0.6,0.1,0.8,0.2l-0.1,0.3c-0.3-0.1-0.5-0.2-0.7-0.2c-0.2,0-0.3,0-0.4,0.1
				c-0.1,0.1-0.2,0.2-0.2,0.3c0,0.1,0,0.2,0.1,0.3c0,0.1,0.1,0.1,0.2,0.2s0.2,0.1,0.4,0.2c0.3,0.1,0.5,0.2,0.7,0.4
				S63.3,18.2,63.3,18.4z"/>
			<path class="st1" d="M64.9,19.2c-0.1,0-0.3,0-0.4-0.1c-0.1-0.1-0.2-0.1-0.3-0.3h0c0,0.1,0,0.3,0,0.4v0.9h-0.3v-3.3h0.3l0,0.3h0
				c0.1-0.1,0.2-0.2,0.3-0.3c0.1-0.1,0.3-0.1,0.4-0.1c0.3,0,0.5,0.1,0.7,0.3s0.2,0.5,0.2,0.9c0,0.4-0.1,0.7-0.2,0.9
				C65.4,19.1,65.2,19.2,64.9,19.2z M64.8,17.2c-0.2,0-0.4,0.1-0.5,0.2c-0.1,0.1-0.2,0.3-0.2,0.6v0.1c0,0.3,0.1,0.5,0.2,0.7
				c0.1,0.1,0.3,0.2,0.5,0.2c0.2,0,0.3-0.1,0.5-0.2c0.1-0.2,0.2-0.4,0.2-0.7c0-0.3-0.1-0.5-0.2-0.7S65,17.2,64.8,17.2z"/>
			<path class="st1" d="M67.8,19.2l-0.1-0.3h0c-0.1,0.1-0.2,0.2-0.3,0.3s-0.3,0.1-0.4,0.1c-0.2,0-0.4-0.1-0.5-0.2
				c-0.1-0.1-0.2-0.3-0.2-0.5c0-0.5,0.4-0.7,1.1-0.7l0.4,0v-0.1c0-0.2,0-0.3-0.1-0.4c-0.1-0.1-0.2-0.1-0.4-0.1
				c-0.2,0-0.4,0.1-0.6,0.2l-0.1-0.3c0.1-0.1,0.2-0.1,0.4-0.1c0.1,0,0.3-0.1,0.4-0.1c0.3,0,0.5,0.1,0.6,0.2c0.1,0.1,0.2,0.3,0.2,0.6
				v1.5H67.8z M67.1,19c0.2,0,0.4-0.1,0.5-0.2c0.1-0.1,0.2-0.3,0.2-0.5v-0.2l-0.3,0c-0.3,0-0.5,0.1-0.6,0.1s-0.2,0.2-0.2,0.4
				c0,0.1,0,0.2,0.1,0.3C66.8,18.9,66.9,19,67.1,19z"/>
		</g>
		<g id="logo_3_">
			<g>
				<path class="st2" d="M19.5,14.1V6.6h3.9v0.8h-3v2.1h3v0.8h-3v3.7H19.5z"/>
				<path class="st2" d="M24.8,14.1V6.6h0.9v7.4H24.8z"/>
				<path class="st2" d="M30.2,9.9c0.5,0.2,0.8,0.5,1.1,0.8s0.4,0.7,0.4,1.2c0,0.7-0.2,1.2-0.7,1.7c-0.4,0.4-1,0.6-1.7,0.6
					c-0.6,0-1.1-0.1-1.5-0.4s-0.7-0.7-0.8-1.3l0.8-0.4c0.1,0.5,0.3,0.8,0.5,1c0.2,0.2,0.6,0.3,0.9,0.3c0.4,0,0.8-0.1,1.1-0.4
					c0.3-0.3,0.4-0.6,0.4-1c0-0.3-0.1-0.6-0.3-0.9s-0.5-0.5-0.9-0.6l-0.9-0.4c-0.5-0.2-0.9-0.5-1.1-0.8c-0.2-0.3-0.4-0.7-0.4-1.2
					c0-0.5,0.2-1,0.6-1.3c0.4-0.3,0.9-0.5,1.5-0.5c0.4,0,0.8,0.1,1.2,0.3s0.6,0.5,0.8,0.8L30.5,8c-0.2-0.3-0.4-0.5-0.6-0.6
					c-0.2-0.1-0.4-0.2-0.7-0.2c-0.3,0-0.6,0.1-0.8,0.3S28.1,8,28.1,8.3c0,0.3,0.1,0.5,0.2,0.7c0.2,0.2,0.4,0.4,0.8,0.5L30.2,9.9z"/>
				<path class="st2" d="M32.8,14.1V6.6h0.9v7.4H32.8z"/>
				<path class="st2" d="M43.1,10.4c0,0.5-0.1,1-0.3,1.5c-0.2,0.5-0.5,0.9-0.9,1.3s-0.8,0.6-1.3,0.8c-0.5,0.2-1,0.3-1.5,0.3
					c-0.5,0-1-0.1-1.5-0.3c-0.5-0.2-0.9-0.5-1.3-0.8c-0.4-0.4-0.7-0.8-0.9-1.3c-0.2-0.5-0.3-1-0.3-1.5c0-0.5,0.1-1,0.3-1.5
					C35.7,8.4,36,8,36.3,7.6c0.4-0.4,0.8-0.6,1.3-0.8s1-0.3,1.5-0.3c0.5,0,1,0.1,1.5,0.3C41.2,7,41.6,7.2,42,7.6
					c0.4,0.4,0.7,0.8,0.9,1.3C43,9.3,43.1,9.8,43.1,10.4z M39.2,13.4c0.4,0,0.8-0.1,1.2-0.2c0.4-0.2,0.7-0.4,1-0.7
					c0.3-0.3,0.5-0.6,0.7-1c0.2-0.4,0.2-0.8,0.2-1.2c0-0.4-0.1-0.8-0.2-1.2s-0.4-0.7-0.7-1c-0.3-0.3-0.6-0.5-1-0.7s-0.8-0.2-1.2-0.2
					c-0.4,0-0.8,0.1-1.2,0.2c-0.4,0.2-0.7,0.4-1,0.7c-0.3,0.3-0.5,0.6-0.7,1c-0.2,0.4-0.2,0.8-0.2,1.2c0,0.4,0.1,0.8,0.2,1.2
					c0.2,0.4,0.4,0.7,0.7,1c0.3,0.3,0.6,0.5,1,0.7C38.4,13.4,38.7,13.4,39.2,13.4z"/>
				<path class="st2" d="M47.3,9.9c0.5,0.2,0.8,0.5,1.1,0.8s0.4,0.7,0.4,1.2c0,0.7-0.2,1.2-0.7,1.7c-0.4,0.4-1,0.6-1.7,0.6
					c-0.6,0-1.1-0.1-1.5-0.4s-0.7-0.7-0.8-1.3l0.8-0.4c0.1,0.5,0.3,0.8,0.5,1c0.2,0.2,0.6,0.3,0.9,0.3c0.4,0,0.8-0.1,1.1-0.4
					c0.3-0.3,0.4-0.6,0.4-1c0-0.3-0.1-0.6-0.3-0.9s-0.5-0.5-0.9-0.6l-0.9-0.4c-0.5-0.2-0.9-0.5-1.1-0.8c-0.2-0.3-0.4-0.7-0.4-1.2
					c0-0.5,0.2-1,0.6-1.3c0.4-0.3,0.9-0.5,1.5-0.5c0.4,0,0.8,0.1,1.2,0.3s0.6,0.5,0.8,0.8L47.6,8c-0.2-0.3-0.4-0.5-0.6-0.6
					c-0.2-0.1-0.4-0.2-0.7-0.2c-0.3,0-0.6,0.1-0.8,0.3S45.2,8,45.2,8.3c0,0.3,0.1,0.5,0.2,0.7c0.2,0.2,0.4,0.4,0.8,0.5L47.3,9.9z"/>
				<path class="st2" d="M51.2,14.1V7.5h-2.1V6.6h5.1v0.8h-2.1v6.6H51.2z"/>
				<path class="st2" d="M55.2,14.1V6.6h3.9v0.8h-3v2.1h3v0.8h-3v2.8h3v0.8H55.2z"/>
				<path class="st2" d="M61.9,14.1V7.5h-2.1V6.6h5.1v0.8h-2.1v6.6H61.9z"/>
				<path class="st2" d="M65.9,14.1V6.6h0.9v7.4H65.9z"/>
				<path class="st2" d="M68.6,14.1V6.6h0.9v3.3l3.1-3.3h1.1L70.4,10l3.5,4.1h-1.1l-3.4-4v4H68.6z"/>
			</g>
		</g>
	</g>
</g>
</svg>
