<?xml version="1.0" encoding="utf-8"?>
<!-- Generator: Adobe Illustrator 24.0.0, SVG Export Plug-In . SVG Version: 6.00 Build 0)  -->
<svg version="1.1" id="Capa_1" xmlns="http://www.w3.org/2000/svg" xmlns:xlink="http://www.w3.org/1999/xlink" x="0px" y="0px"
	 viewBox="0 0 46 55" style="enable-background:new 0 0 46 55;" xml:space="preserve">
<style type="text/css">
	.st0{fill-rule:evenodd;clip-rule:evenodd;fill:#FFFFFF;}
</style>
<g id="logo_1_">
	<g id="logo_3_">
		<path class="st0" d="M10.2,42c0.3-0.6-0.7-3.2,1.6-6.7l1.8-2.5c0.7-0.9,2.7-2.9,3.7-3.8l1.6-1.5c0.3-0.3,0.7-0.8,1.2-1
			c2.1-0.9,7-0.4,7-1.6c-0.5-1.3-4.5,0.2-5.5,0.4c0.3-0.6,2.7-2.7,3.4-3.4c1.5-1.5,3.9-4.3,4.9-6.4c1-2,1.7-4.8,1.2-7.4
			c-0.3-1.6-2.1-5.5-3.1-6c0.4,3.3,0.5,3.7-0.9,6.6c-0.9,1.8-2.3,3.5-3.4,4.7c-0.3,0.3-0.7,0.7-1,1l-9.5,8.7
			c-2.3,2.4-3.6,3.7-5.3,6.9c-1.6,3-1.2,6.6,0.6,9.6c0.3,0.4,1.2,1.8,1.6,2.2C10.2,42,10,41.9,10.2,42L10.2,42z M18.2,46.2
			c0.8,0.2,1.3,1,4.2,1.5c3.1,0.6,6.3-0.4,9-1.8c4.2-2.4,2.5-3,3.2-5.2c1.2-3.9,4.5-5.3,5.8-8.2c1-2.3,0.4-3.3,0.4-4.8
			c0.3,0.1,0.4,0.2,0.6,0.5c0.2,0.3,0.2,0.2,0.4,0.5c0.1,0.2,0.3,0.4,0.4,0.5c0.2,0.2,0.3,0.3,0.4,0.5c1.8,2.4,2.7,5.6,2.1,8.7
			c-0.6,3.1-3.1,5.9-5.8,7.3c-0.4,0.2-1,0.3-1.2,0.7c0.1,0.3,0.5,0.3,1,0.5c2.4,0.8,4.3,3.5,4.2,6.1c-0.5-0.1-0.9-0.4-1.3-0.5
			c-1-0.2-3.2-0.1-4.8-0.4c-3-0.5-3.8-2.9-3.4-3.3c0.7-0.4,2.5,0,3.3,0.1c0.6,0.1,1,0.3,1.5,0.4c0.4,0.2,1,0.4,1.4,0.5
			c-0.4-1-3-1.8-3.9-2c-0.3-0.1-0.6-0.1-0.9-0.1c-0.4,0-0.5,0-0.8-0.2c1-1.2,4-1.8,6.7-7.1c0.4-0.9,1-2.5,1-3.6
			c-0.2,0.1-0.1,0-0.2,0.2l-0.3,0.6c-0.4,1-0.7,1.4-1.3,2.3c-1.6,2.3-3.8,4.4-6.1,5.9c-2.4,1.6-5.6,3.1-8.8,3.2
			c-1.3,0-3.1-0.2-4.1-0.7c-0.8-0.4-1.9-1-2.5-1.7C18.2,46.4,18.2,46.5,18.2,46.2L18.2,46.2z M5.3,37.5c-1-0.5-2.3-3.9-2.6-5.3
			c-0.6-3.2,0.5-6.6,2.2-9.1l2.7-3.2c0.1-0.2,0.3-0.4,0.5-0.5l2.5-2.2c1.2-1.1,7-5.7,8.7-6.9l2.2-1.8c0.7-0.6,1.4-1.2,2.1-1.8
			c2.8-2.6,2.8-4,3.3-4.4c0.9,1.1-1.4,4.5-1.9,5.2c-1.8,2.4-1.2,1.5-3.4,3.8c-1.5,1.6-3.2,3-4.7,4.4L16,16.6
			c-0.8,0.8-0.9,0.7-1.9,1.7c-0.8,0.8-4,3.8-4.6,4.6L7.1,26c-0.9,1.3-1.9,3.2-2.3,5C4,34.9,5,35.8,5.3,37.5L5.3,37.5z M17,30.4
			c1.5-0.1,3.3,0.5,5,0c2.5-0.7,1.5-2.5,2.7-2.5l-0.2,0.6c0.3,0.1,0.4,0.1,0.6,0.4c0.3,0.7,0.4,1,0.1,1.4c-0.2,0.4-0.1,0.3,0,0.7
			l-0.9-0.1c0.1,0.4,0.3,0.3,0.3,0.9l-0.8-0.3l0.2,0.7c-0.4-0.1-0.5-0.3-0.9-0.4l0.1,0.8c-0.6-0.1-0.4-0.3-0.8-0.5l0.1,0.8
			c-0.2,0-0.6-0.3-0.8-0.5l-0.1,0.3c-0.1,0.1,0,0-0.1,0.2c-0.3-0.2-0.2-0.2-0.5-0.3c0.1,0.4,0.2,0.5,0.3,0.7c-0.5-0.1-0.3-0.4-1-0.6
			l-0.2,0.5c-0.3-0.3-0.3-0.5-0.8-0.7c-1.6-0.8-0.8-0.5-1.5-1.3C17.4,30.8,17.2,30.8,17,30.4L17,30.4z M26.3,39.8
			c0.4-0.3,1.1-0.6,1.5-0.9c0.6-0.5,0.6-0.6,1.1-1.2c1.5-1.7,1.2-0.9,2.1-1.4c0.3-0.2,0.3-0.3,0.8-0.4c-0.1,0.6-0.4,1.8-0.6,2.3
			C30,41.8,26.6,40.9,26.3,39.8L26.3,39.8z M30.9,23.8c0-0.7,0.2-0.7,0.4-1.3c0.5-1.4-0.3-2.3,0.9-1.7c0.5,0.2,0.9,0.2,1.4,0.2
			c-0.2,0.3-0.2,0.3-0.3,0.4c0.2,0.2,0.1,0.1,0.2,0.3c-0.5,0.3-0.3,0.2-0.4,0.8C32.9,23.9,32.2,23.8,30.9,23.8z"/>
	</g>
</g>
</svg>
