<?xml version="1.0" encoding="utf-8"?>
<!-- Generator: Adobe Illustrator 24.0.0, SVG Export Plug-In . SVG Version: 6.00 Build 0)  -->
<svg version="1.1" id="Capa_1" xmlns="http://www.w3.org/2000/svg" xmlns:xlink="http://www.w3.org/1999/xlink" x="0px" y="0px"
	 viewBox="0 0 95.7 25" style="enable-background:new 0 0 95.7 25;" xml:space="preserve">
<style type="text/css">
	.st0{fill:#FFFFFF;}
</style>
<g>
	<g>
		<path class="st0" d="M7.6,22.6L5.9,18l0,0c0,0.3,0.1,0.8,0.1,1.3v3.3H5.4v-5.2h0.8l1.7,4.3l0,0l1.7-4.3h0.9v5.2H9.8v-3.4
			c0-0.4,0-0.8,0.1-1.3l0,0l-1.8,4.6H7.6z"/>
		<path class="st0" d="M13.5,22.7c-0.6,0-1-0.2-1.4-0.6c-0.3-0.3-0.5-0.8-0.5-1.5c0-0.6,0.1-1.1,0.5-1.5c0.3-0.3,0.7-0.6,1.3-0.6
			c0.5,0,0.9,0.1,1.2,0.5c0.3,0.3,0.4,0.8,0.4,1.3v0.3h-2.7c0,0.5,0.1,0.8,0.3,1c0.2,0.2,0.6,0.3,0.9,0.3c0.4,0,0.8-0.1,1.3-0.3v0.6
			c-0.2,0.1-0.4,0.1-0.6,0.2C13.9,22.7,13.7,22.7,13.5,22.7z M13.3,19.2c-0.3,0-0.6,0.1-0.8,0.3c-0.2,0.2-0.3,0.5-0.3,0.8h2
			c0-0.3-0.1-0.6-0.3-0.8C13.9,19.3,13.7,19.2,13.3,19.2z"/>
		<path class="st0" d="M18.6,22.2L18.6,22.2c-0.3,0.4-0.7,0.6-1.3,0.6c-0.5,0-0.9-0.2-1.2-0.6c-0.3-0.3-0.4-0.8-0.4-1.5
			c0-0.6,0.1-1.1,0.4-1.5c0.3-0.3,0.7-0.6,1.2-0.6c0.6,0,0.9,0.2,1.3,0.6h0.1v-0.3v-0.3v-1.6h0.6v5.6h-0.5L18.6,22.2z M17.4,22.2
			c0.4,0,0.7-0.1,0.9-0.3c0.2-0.2,0.3-0.6,0.3-1v-0.1c0-0.6-0.1-1-0.3-1.2c-0.2-0.2-0.5-0.3-0.9-0.3c-0.3,0-0.6,0.1-0.8,0.4
			c-0.2,0.3-0.3,0.6-0.3,1.1c0,0.5,0.1,0.9,0.3,1.1C16.9,22,17.1,22.2,17.4,22.2z"/>
		<path class="st0" d="M20.4,17.7c0-0.1,0-0.2,0.1-0.3c0.1-0.1,0.1-0.1,0.3-0.1c0.1,0,0.2,0,0.3,0.1s0.1,0.1,0.1,0.3
			c0,0.1,0,0.2-0.1,0.3C20.9,18,20.8,18,20.7,18c-0.1,0-0.2,0-0.3-0.1C20.4,17.9,20.4,17.8,20.4,17.7z M21,22.6h-0.6v-3.9H21V22.6z"
			/>
		<path class="st0" d="M23.8,22.7c-0.6,0-1-0.2-1.3-0.6c-0.3-0.3-0.5-0.8-0.5-1.5c0-0.6,0.1-1.2,0.5-1.5s0.8-0.6,1.3-0.6
			c0.2,0,0.3,0,0.6,0.1c0.2,0.1,0.3,0.1,0.4,0.1l-0.2,0.5c-0.1-0.1-0.3-0.1-0.4-0.1c-0.1,0-0.3-0.1-0.4-0.1c-0.8,0-1.2,0.5-1.2,1.5
			c0,0.5,0.1,0.8,0.3,1.1c0.2,0.3,0.5,0.4,0.8,0.4c0.3,0,0.6-0.1,1-0.2v0.6C24.5,22.6,24.2,22.7,23.8,22.7z"/>
		<path class="st0" d="M25.7,17.7c0-0.1,0-0.2,0.1-0.3c0.1-0.1,0.1-0.1,0.3-0.1c0.1,0,0.2,0,0.3,0.1c0.1,0.1,0.1,0.1,0.1,0.3
			c0,0.1,0,0.2-0.1,0.3C26.2,18,26.1,18,26,18c-0.1,0-0.2,0-0.3-0.1C25.7,17.9,25.7,17.8,25.7,17.7z M26.4,22.6h-0.6v-3.9h0.6
			L26.4,22.6L26.4,22.6z"/>
		<path class="st0" d="M30.3,22.6v-2.5c0-0.3-0.1-0.6-0.2-0.7c-0.1-0.1-0.3-0.2-0.7-0.2c-0.4,0-0.7,0.1-0.9,0.3
			c-0.2,0.2-0.3,0.6-0.3,1.1v2h-0.6v-3.9h0.5l0.1,0.6l0,0c0.1-0.2,0.3-0.3,0.5-0.4c0.2-0.1,0.5-0.1,0.7-0.1c0.5,0,0.8,0.1,1,0.3
			c0.2,0.2,0.3,0.6,0.3,1.1v2.6h-0.5V22.6z"/>
		<path class="st0" d="M34.4,22.6l-0.1-0.6l0,0c-0.2,0.3-0.4,0.4-0.6,0.5c-0.2,0.1-0.4,0.1-0.7,0.1c-0.4,0-0.7-0.1-0.9-0.3
			c-0.2-0.2-0.3-0.5-0.3-0.8c0-0.8,0.6-1.2,1.9-1.3h0.7v-0.2c0-0.3-0.1-0.6-0.2-0.7c-0.1-0.1-0.3-0.2-0.6-0.2
			c-0.3,0-0.7,0.1-1.1,0.3l-0.2-0.4c0.2-0.1,0.4-0.2,0.6-0.3c0.2-0.1,0.5-0.1,0.7-0.1c0.5,0,0.8,0.1,1,0.3c0.2,0.2,0.3,0.6,0.3,1
			v2.6C35,22.6,34.4,22.6,34.4,22.6z M33.1,22.2c0.3,0,0.6-0.1,0.8-0.3c0.2-0.2,0.3-0.5,0.3-0.8v-0.3h-0.6c-0.5,0-0.8,0.1-1,0.2
			s-0.3,0.3-0.3,0.6c0,0.2,0.1,0.3,0.2,0.5C32.7,22.2,32.9,22.2,33.1,22.2z"/>
		<path class="st0" d="M41,22.6h-2.9v-5.2H41V18h-2.3v1.7h2.2v0.6h-2.2v1.9H41V22.6z"/>
		<path class="st0" d="M44.6,21.6c0,0.3-0.1,0.6-0.4,0.8s-0.6,0.3-1.1,0.3c-0.5,0-0.9-0.1-1.2-0.3v-0.6c0.2,0.1,0.4,0.1,0.6,0.2
			s0.4,0.1,0.6,0.1c0.3,0,0.6-0.1,0.7-0.1c0.1-0.1,0.3-0.3,0.3-0.4s-0.1-0.3-0.2-0.4c-0.1-0.1-0.4-0.2-0.8-0.3
			c-0.3-0.1-0.6-0.3-0.8-0.3s-0.3-0.2-0.3-0.3c-0.1-0.1-0.1-0.3-0.1-0.5c0-0.3,0.1-0.6,0.4-0.8c0.3-0.2,0.6-0.3,1-0.3
			s0.8,0.1,1.3,0.3l-0.2,0.5c-0.4-0.1-0.8-0.2-1-0.2c-0.3,0-0.5,0.1-0.6,0.1c-0.1,0.1-0.2,0.2-0.2,0.3c0,0.1,0,0.2,0.1,0.3
			c0.1,0.1,0.1,0.1,0.3,0.2s0.3,0.1,0.7,0.3c0.5,0.1,0.8,0.3,0.9,0.5C44.6,21.1,44.6,21.3,44.6,21.6z"/>
		<path class="st0" d="M46.9,22.2c0.1,0,0.2,0,0.3,0c0.1,0,0.2,0,0.2-0.1v0.5c-0.1,0-0.1,0.1-0.3,0.1s-0.2,0-0.3,0
			c-0.8,0-1.1-0.4-1.1-1.2v-2.3H45v-0.3l0.6-0.3l0.3-0.8h0.3v0.9h1.1v0.5h-1.1v2.3c0,0.2,0.1,0.4,0.1,0.6
			C46.5,22.2,46.6,22.2,46.9,22.2z"/>
		<path class="st0" d="M49.8,22.7c-0.6,0-1-0.2-1.4-0.6c-0.3-0.3-0.5-0.8-0.5-1.5c0-0.6,0.1-1.1,0.5-1.5s0.7-0.6,1.3-0.6
			c0.5,0,0.9,0.1,1.2,0.5c0.3,0.3,0.4,0.8,0.4,1.3v0.3h-2.7c0,0.5,0.1,0.8,0.3,1c0.2,0.2,0.6,0.3,0.9,0.3c0.4,0,0.8-0.1,1.3-0.3v0.6
			c-0.2,0.1-0.4,0.1-0.6,0.2C50.3,22.7,50.1,22.7,49.8,22.7z M49.6,19.2c-0.3,0-0.6,0.1-0.8,0.3c-0.2,0.2-0.3,0.5-0.3,0.8h2
			c0-0.3-0.1-0.6-0.3-0.8C50.2,19.3,50,19.2,49.6,19.2z M49.2,18.1c0.1-0.1,0.2-0.3,0.3-0.6c0.1-0.2,0.2-0.4,0.3-0.6h0.7v0.1
			c-0.1,0.1-0.3,0.3-0.5,0.6s-0.4,0.4-0.6,0.6h-0.4v-0.1H49.2z"/>
		<path class="st0" d="M53.5,22.2c0.1,0,0.2,0,0.3,0c0.1,0,0.2,0,0.2-0.1v0.5c-0.1,0-0.1,0.1-0.3,0.1c-0.1,0-0.2,0-0.3,0
			c-0.8,0-1.1-0.4-1.1-1.2v-2.3h-0.6v-0.3l0.6-0.3l0.3-0.8h0.3v0.9H54v0.5h-1.1v2.3c0,0.2,0.1,0.4,0.1,0.6
			C53.2,22.2,53.3,22.2,53.5,22.2z"/>
		<path class="st0" d="M54.8,17.7c0-0.1,0-0.2,0.1-0.3c0.1-0.1,0.1-0.1,0.3-0.1c0.1,0,0.2,0,0.3,0.1c0.1,0.1,0.1,0.1,0.1,0.3
			c0,0.1,0,0.2-0.1,0.3C55.4,18,55.3,18,55.2,18c-0.1,0-0.2,0-0.3-0.1C54.8,17.9,54.8,17.8,54.8,17.7z M55.4,22.6h-0.6v-3.9h0.6
			V22.6z"/>
		<path class="st0" d="M58.2,22.7c-0.6,0-1-0.2-1.3-0.6c-0.3-0.3-0.5-0.8-0.5-1.5c0-0.6,0.1-1.2,0.5-1.5c0.3-0.3,0.8-0.6,1.3-0.6
			c0.2,0,0.3,0,0.6,0.1c0.2,0.1,0.3,0.1,0.4,0.1L59,19.3c-0.1-0.1-0.3-0.1-0.4-0.1c-0.1,0-0.3-0.1-0.4-0.1c-0.8,0-1.2,0.5-1.2,1.5
			c0,0.5,0.1,0.8,0.3,1.1c0.2,0.3,0.5,0.4,0.8,0.4s0.6-0.1,1-0.2v0.6C59,22.6,58.6,22.7,58.2,22.7z"/>
		<path class="st0" d="M62.5,22.6l-0.1-0.6l0,0c-0.2,0.3-0.4,0.4-0.6,0.5c-0.2,0.1-0.4,0.1-0.7,0.1c-0.4,0-0.7-0.1-0.9-0.3
			c-0.2-0.2-0.3-0.5-0.3-0.8c0-0.8,0.6-1.2,1.9-1.3h0.7v-0.2c0-0.3-0.1-0.6-0.2-0.7s-0.3-0.2-0.6-0.2c-0.3,0-0.7,0.1-1.1,0.3
			l-0.2-0.4c0.2-0.1,0.4-0.2,0.6-0.3c0.2-0.1,0.5-0.1,0.7-0.1c0.5,0,0.8,0.1,1,0.3c0.2,0.2,0.3,0.6,0.3,1v2.6
			C63,22.6,62.5,22.6,62.5,22.6z M61.2,22.2c0.3,0,0.6-0.1,0.8-0.3c0.2-0.2,0.3-0.5,0.3-0.8v-0.3h-0.6c-0.5,0-0.8,0.1-1,0.2
			s-0.3,0.3-0.3,0.6c0,0.2,0.1,0.3,0.2,0.5C60.8,22.2,61,22.2,61.2,22.2z"/>
		<path class="st0" d="M65.9,21.3c0-0.3,0.1-0.6,0.3-0.8c0.1-0.2,0.5-0.5,0.9-0.7c-0.2-0.2-0.3-0.4-0.4-0.5
			c-0.1-0.1-0.1-0.2-0.1-0.3c0-0.1-0.1-0.3-0.1-0.4c0-0.3,0.1-0.6,0.3-0.8c0.2-0.2,0.6-0.3,1-0.3c0.4,0,0.7,0.1,0.9,0.3
			c0.2,0.2,0.3,0.5,0.3,0.8c0,0.3-0.1,0.5-0.2,0.7c-0.1,0.2-0.4,0.4-0.8,0.6l1.5,1.4c0.1-0.1,0.2-0.3,0.3-0.5
			c0.1-0.2,0.1-0.4,0.2-0.6h0.6c-0.1,0.7-0.4,1.2-0.7,1.5l1,1h-0.8l-0.6-0.6c-0.3,0.3-0.6,0.4-0.8,0.6c-0.3,0.1-0.6,0.1-1,0.1
			c-0.5,0-0.9-0.1-1.2-0.3C66,22.1,65.9,21.7,65.9,21.3z M67.5,22.2c0.6,0,1-0.2,1.4-0.6l-1.5-1.5c-0.3,0.1-0.4,0.3-0.6,0.4
			c-0.1,0.1-0.2,0.2-0.2,0.3c-0.1,0.1-0.1,0.3-0.1,0.4c0,0.3,0.1,0.5,0.3,0.6C67,22.1,67.2,22.2,67.5,22.2z M67,18.5
			c0,0.1,0.1,0.3,0.1,0.5c0.1,0.1,0.2,0.3,0.4,0.6c0.3-0.2,0.5-0.3,0.6-0.5c0.1-0.1,0.2-0.3,0.2-0.6s-0.1-0.3-0.2-0.4
			c-0.1-0.1-0.3-0.1-0.5-0.1c-0.2,0-0.3,0.1-0.5,0.1C67.1,18.1,67,18.3,67,18.5z"/>
		<path class="st0" d="M76.4,21.3c0,0.5-0.1,0.8-0.5,1c-0.3,0.2-0.8,0.4-1.3,0.4c-0.6,0-1.1-0.1-1.4-0.2v-0.6
			c0.2,0.1,0.4,0.1,0.7,0.2c0.3,0.1,0.5,0.1,0.8,0.1c0.4,0,0.7-0.1,0.9-0.2c0.2-0.1,0.3-0.3,0.3-0.6c0-0.2-0.1-0.3-0.1-0.4
			c-0.1-0.1-0.2-0.2-0.3-0.3c-0.1-0.1-0.4-0.2-0.8-0.3c-0.5-0.1-0.8-0.3-1-0.6c-0.2-0.2-0.3-0.6-0.3-0.9c0-0.4,0.1-0.7,0.4-1
			c0.3-0.2,0.7-0.3,1.2-0.3s1,0.1,1.5,0.3l-0.2,0.6C75.7,18,75.3,18,74.9,18c-0.3,0-0.6,0.1-0.8,0.2s-0.3,0.3-0.3,0.6s0,0.3,0.1,0.4
			c0.1,0.1,0.2,0.2,0.3,0.3c0.1,0.1,0.4,0.2,0.7,0.3c0.6,0.2,0.9,0.4,1.1,0.6C76.3,20.6,76.4,20.9,76.4,21.3z"/>
		<path class="st0" d="M79.2,22.7c-0.3,0-0.5-0.1-0.7-0.1c-0.2-0.1-0.4-0.2-0.6-0.4h-0.1c0,0.2,0.1,0.4,0.1,0.6v1.6h-0.6v-5.6h0.5
			l0.1,0.6l0,0c0.1-0.2,0.3-0.3,0.6-0.5c0.2-0.1,0.4-0.1,0.7-0.1c0.5,0,0.9,0.2,1.2,0.6s0.4,0.8,0.4,1.5c0,0.6-0.1,1.1-0.4,1.5
			C80.1,22.6,79.7,22.7,79.2,22.7z M79.1,19.2c-0.4,0-0.7,0.1-0.8,0.3s-0.3,0.6-0.3,1v0.1c0,0.6,0.1,1,0.3,1.2
			c0.2,0.2,0.5,0.3,0.9,0.3c0.3,0,0.6-0.1,0.8-0.4s0.3-0.6,0.3-1.1c0-0.5-0.1-0.8-0.3-1.1C79.7,19.3,79.4,19.2,79.1,19.2z"/>
		<path class="st0" d="M84.2,22.6l-0.1-0.6l0,0c-0.2,0.3-0.4,0.4-0.6,0.5c-0.2,0.1-0.4,0.1-0.7,0.1c-0.4,0-0.7-0.1-0.9-0.3
			c-0.2-0.2-0.3-0.5-0.3-0.8c0-0.8,0.6-1.2,1.9-1.3h0.7v-0.2c0-0.3-0.1-0.6-0.2-0.7s-0.3-0.2-0.6-0.2c-0.3,0-0.7,0.1-1.1,0.3
			L82,19.1c0.2-0.1,0.4-0.2,0.6-0.3c0.2-0.1,0.5-0.1,0.7-0.1c0.5,0,0.8,0.1,1,0.3c0.2,0.2,0.3,0.6,0.3,1v2.6
			C84.7,22.6,84.2,22.6,84.2,22.6z M82.9,22.2c0.3,0,0.6-0.1,0.8-0.3c0.2-0.2,0.3-0.5,0.3-0.8v-0.3h-0.6c-0.5,0-0.8,0.1-1,0.2
			c-0.2,0.1-0.3,0.3-0.3,0.6c0,0.2,0.1,0.3,0.2,0.5C82.5,22.2,82.7,22.2,82.9,22.2z"/>
	</g>
	<g id="logo_2_">
		<g>
			<path class="st0" d="M1,13.8V1h6.8v1.4H2.6v3.6h5.2v1.4H2.6v6.3H1z"/>
			<path class="st0" d="M10.1,13.8V1h1.5v12.8L10.1,13.8L10.1,13.8z"/>
			<path class="st0" d="M19.5,6.7c0.8,0.3,1.5,0.8,1.9,1.4S22,9.3,22,10.2c0,1.2-0.3,2.1-1.1,2.9c-0.8,0.7-1.7,1-3,1
				c-1,0-1.9-0.3-2.5-0.8c-0.7-0.5-1.1-1.3-1.4-2.2l1.4-0.7c0.2,0.8,0.5,1.4,0.9,1.7c0.4,0.4,1,0.6,1.6,0.6c0.8,0,1.4-0.2,1.9-0.6
				c0.5-0.4,0.7-1,0.7-1.7c0-0.6-0.1-1-0.5-1.5s-0.8-0.8-1.5-1l-1.5-0.7c-0.8-0.3-1.5-0.8-1.9-1.4c-0.4-0.6-0.6-1.3-0.6-2
				c0-0.9,0.3-1.7,1-2.2c0.7-0.6,1.5-0.9,2.6-0.9c0.8,0,1.5,0.1,2,0.5s1,0.8,1.3,1.5l-1.3,0.8c-0.3-0.5-0.6-0.8-1-1.1
				c-0.3-0.2-0.8-0.3-1.2-0.3c-0.6,0-1,0.2-1.4,0.6C16.2,2.8,16,3.3,16,3.8c0,0.5,0.1,0.8,0.4,1.2c0.3,0.3,0.7,0.6,1.3,0.9L19.5,6.7
				z"/>
			<path class="st0" d="M24,13.8V1h1.5v12.8L24,13.8L24,13.8z"/>
			<path class="st0" d="M41.7,7.4c0,0.9-0.1,1.7-0.5,2.6c-0.3,0.8-0.8,1.5-1.5,2.2c-0.6,0.6-1.4,1.1-2.2,1.5
				c-0.8,0.3-1.7,0.5-2.6,0.5c-0.9,0-1.7-0.1-2.6-0.5c-0.8-0.3-1.6-0.8-2.2-1.5c-0.6-0.6-1.1-1.3-1.5-2.2c-0.3-0.8-0.5-1.7-0.5-2.6
				c0-0.9,0.1-1.8,0.5-2.6c0.3-0.8,0.8-1.5,1.5-2.2s1.4-1.1,2.2-1.5s1.7-0.5,2.6-0.5c0.9,0,1.8,0.1,2.6,0.5c0.8,0.3,1.6,0.8,2.2,1.5
				c0.6,0.6,1.1,1.3,1.5,2.2C41.6,5.6,41.7,6.5,41.7,7.4z M34.9,12.7c0.7,0,1.4-0.1,2-0.4c0.6-0.3,1.2-0.6,1.7-1.2
				c0.5-0.5,0.9-1,1.1-1.7s0.4-1.3,0.4-2s-0.1-1.4-0.4-2s-0.6-1.2-1.1-1.7c-0.5-0.5-1-0.9-1.7-1.1c-0.6-0.3-1.3-0.4-2-0.4
				c-0.7,0-1.4,0.1-2,0.4c-0.6,0.3-1.2,0.6-1.7,1.1c-0.5,0.5-0.9,1.1-1.1,1.7c-0.3,0.6-0.4,1.3-0.4,2s0.1,1.4,0.4,2
				c0.3,0.6,0.6,1.2,1.2,1.7c0.5,0.5,1.1,0.9,1.7,1.2C33.5,12.6,34.2,12.7,34.9,12.7z"/>
			<path class="st0" d="M48.9,6.7c0.8,0.3,1.5,0.8,1.9,1.4c0.4,0.6,0.6,1.3,0.6,2.1c0,1.2-0.3,2.1-1.1,2.9c-0.8,0.7-1.7,1-3,1
				c-1,0-1.9-0.3-2.5-0.8c-0.7-0.5-1.1-1.3-1.4-2.2l1.4-0.7c0.2,0.8,0.5,1.4,0.9,1.7c0.4,0.4,1,0.6,1.6,0.6c0.8,0,1.4-0.2,1.9-0.6
				c0.5-0.4,0.7-1,0.7-1.7c0-0.6-0.1-1-0.5-1.5c-0.3-0.4-0.8-0.8-1.5-1l-1.5-0.7c-0.8-0.3-1.5-0.8-1.9-1.4s-0.6-1.3-0.6-2
				c0-0.9,0.3-1.7,1-2.2c0.7-0.6,1.5-0.9,2.6-0.9c0.8,0,1.5,0.1,2,0.5c0.6,0.3,1,0.8,1.3,1.5l-1.3,0.8c-0.3-0.5-0.6-0.8-1-1.1
				c-0.3-0.2-0.8-0.3-1.2-0.3c-0.6,0-1,0.2-1.4,0.6c-0.3,0.3-0.6,0.8-0.6,1.3c0,0.5,0.1,0.8,0.4,1.2s0.7,0.6,1.3,0.9L48.9,6.7z"/>
			<path class="st0" d="M55.6,13.8V2.4H52V1h8.8v1.5h-3.6v11.4H55.6z"/>
			<path class="st0" d="M62.5,13.8V1h6.8v1.4H64v3.6h5.2v1.4H64v4.9h5.2v1.4L62.5,13.8L62.5,13.8z"/>
			<path class="st0" d="M74,13.8V2.4h-3.6V1h8.8v1.5h-3.6v11.4H74z"/>
			<path class="st0" d="M80.9,13.8V1h1.5v12.8L80.9,13.8L80.9,13.8z"/>
			<path class="st0" d="M85.5,13.8V1H87v5.7L92.4,1h1.8l-5.5,5.8l6.1,7h-2L87,7v6.9L85.5,13.8L85.5,13.8z"/>
		</g>
	</g>
</g>
</svg>
